<svg xmlns="http://www.w3.org/2000/svg" xmlns:xlink="http://www.w3.org/1999/xlink" width="1080" zoomAndPan="magnify" viewBox="0 0 810 809.999993" height="1080" preserveAspectRatio="xMidYMid meet" version="1.2"><g id="2965b321b3"><path style="fill:none;stroke-width:4;stroke-linecap:butt;stroke-linejoin:miter;stroke:#000000;stroke-opacity:1;stroke-miterlimit:4;" d="M -0.00257536 204.562932 L 60.196035 204.562932 C 73.453503 204.562932 84.196174 193.820261 84.196174 180.562792 L 84.196174 26.001895 C 84.196174 12.744427 94.944063 2.001756 108.196314 2.001756 L 197.346396 2.001756 " transform="matrix(0.748694,0,0,0.748694,353.669897,407.677079)"/><path style="fill:none;stroke-width:4;stroke-linecap:butt;stroke-linejoin:miter;stroke:#000000;stroke-opacity:1;stroke-miterlimit:4;" d="M -0.00175788 68.183457 L 64.249142 68.183457 C 77.504612 68.183457 88.253136 57.440155 88.253136 44.184686 L 88.253136 -0.000212171 " transform="matrix(0.747922,0,0,0.747922,501.681002,358.039221)"/><path style="fill:none;stroke-width:4;stroke-linecap:butt;stroke-linejoin:miter;stroke:#000000;stroke-opacity:1;stroke-miterlimit:4;" d="M -0.00248747 1.999348 L 49.38301 1.999348 " transform="matrix(0.744304,-0.000000000000008584,0.000000000000008584,0.744304,567.869039,356.539221)"/><path style="fill:none;stroke-width:4;stroke-linecap:butt;stroke-linejoin:miter;stroke:#000000;stroke-opacity:1;stroke-miterlimit:4;" d="M 0.00115323 2.001748 L 294.466319 1.998642 " transform="matrix(-0.00508608,-0.748829,0.748829,-0.00508608,603.399477,578.889951)"/><path style="fill:none;stroke-width:4;stroke-linecap:butt;stroke-linejoin:miter;stroke:#000000;stroke-opacity:1;stroke-miterlimit:4;" d="M 0.00063703 2.001584 L 344.90749 2.001587 " transform="matrix(0.749987,-0.00434901,0.00434901,0.749987,346.221286,577.385559)"/><path style="fill:none;stroke-width:4;stroke-linecap:butt;stroke-linejoin:miter;stroke:#000000;stroke-opacity:1;stroke-miterlimit:4;" d="M -0.00220688 1.998655 L 21.724284 2.000738 " transform="matrix(0.0259619,0.74955,-0.74955,0.0259619,355.166119,561.051328)"/></g></svg>